<svg width="708.1800048828125px" height="100.6400146484375px" xmlns="http://www.w3.org/2000/svg" viewBox="-104.09000244140623 24.67999267578125 708.1800048828125 100.6400146484375" style="background: rgba(0, 0, 0, 0) none repeat scroll 0% 0%;" preserveAspectRatio="xMidYMid"><defs><filter id="editing-neon" x="-100%" y="-100%" width="300%" height="300%"><feFlood flood-color="#00ff2f" result="flood"></feFlood><feComposite operator="in" in="flood" in2="SourceAlpha" result="color"></feComposite><feFlood flood-color="#00ff2f" result="flood2"></feFlood><feComposite operator="in" in="flood2" in2="SourceAlpha" result="color2"></feComposite><feMorphology operator="dilate" radius="2" in="color" result="dilate"></feMorphology><feGaussianBlur stdDeviation="6" in="color" result="blur1"></feGaussianBlur><feGaussianBlur stdDeviation="2.5" in="color" result="blur2"></feGaussianBlur><feGaussianBlur stdDeviation="1" in="SourceAlpha" result="blur3"></feGaussianBlur><feGaussianBlur stdDeviation="6" in="dilate" result="blur4"></feGaussianBlur><feConvolveMatrix in="color2" result="conv" order="3,3" divisor="1" kernelMatrix="1 1 1  1 1 1  1 1 1"></feConvolveMatrix><feMerge><feMergeNode in="blur1"></feMergeNode><feMergeNode in="blur2"></feMergeNode><feMergeNode in="blur4"></feMergeNode><feMergeNode in="blur3"></feMergeNode><feMergeNode in="blur3"></feMergeNode><feMergeNode in="blur3"></feMergeNode><feMergeNode in="blur3"></feMergeNode><feMergeNode in="conv"></feMergeNode><feMergeNode in="SourceGraphic"></feMergeNode></feMerge></filter></defs><g filter="url(#editing-neon)"><g transform="translate(-0.6064834594726562, 93.375)"><path d="M2.35-30.53L2.35-30.53L2.35-30.53Q4.66-33.22 8.48-33.22L8.48-33.22L8.48-33.22Q11.52-33.22 13.13-32.05L13.13-32.05L13.13-32.05Q14.75-30.82 15.83-27.83L15.83-27.83L17.89-22.00L25.28-32.29L31.90-32.29L19.89-16.37L22.98-7.64L22.98-7.64Q23.67-5.68 24.87-4.24L24.87-4.24L24.87-4.24Q26.07-2.79 27.15-2.55L27.15-2.55L27.15-2.55Q26.17-0.69 24.48 0.15L24.48 0.15L24.48 0.15Q22.79 0.98 20.31 0.98L20.31 0.98L20.31 0.98Q17.84 0.98 16.10-0.64L16.10-0.64L16.10-0.64Q14.36-2.25 13.03-5.88L13.03-5.88L11.61-9.80L4.21 0L-1.81 0L9.46-15.63L5.93-25.48L5.93-25.48Q5.15-27.64 4.36-28.74L4.36-28.74L4.36-28.74Q3.58-29.84 2.35-30.53ZM31.92-1.47L31.92-1.47L31.92-1.47Q30.77-2.74 30.26-4.75L30.26-4.75L30.26-4.75Q29.74-6.76 29.74-10.04L29.74-10.04L29.74-10.04Q29.74-13.33 30.87-16.32L30.87-16.32L30.87-16.32Q32.00-19.31 34.05-21.46L34.05-21.46L34.05-21.46Q38.27-25.97 45.23-25.97L45.23-25.97L45.23-25.97Q47.73-25.97 49.54-25.14L49.54-25.14L57.92-25.97L54.29-6.86L54.29-6.86Q54.14-6.27 54.14-5.19L54.14-5.19L54.14-5.19Q54.14-4.12 54.81-3.43L54.81-3.43L54.81-3.43Q55.47-2.74 56.45-2.65L56.45-2.65L56.45-2.65Q55.96-0.98 54.17 0L54.17 0L54.17 0Q52.38 0.98 50.37 0.98L50.37 0.98L50.37 0.98Q48.36 0.98 47.02 0.22L47.02 0.22L47.02 0.22Q45.67-0.54 45.28-1.81L45.28-1.81L45.28-1.81Q44.49-0.59 42.83 0.20L42.83 0.20L42.83 0.20Q41.16 0.98 38.93 0.98L38.93 0.98L38.93 0.98Q36.70 0.98 34.89 0.39L34.89 0.39L34.89 0.39Q33.08-0.20 31.92-1.47ZM42.26-21.36L42.26-21.36L42.26-21.36Q41.70-20.48 41.21-18.99L41.21-18.99L41.21-18.99Q40.72-17.49 39.91-13.50L39.91-13.50L39.91-13.50Q39.10-9.51 39.10-6.66L39.10-6.66L39.10-6.66Q39.10-3.82 39.54-2.99L39.54-2.99L39.54-2.99Q39.98-2.16 40.77-2.16L40.77-2.16L40.77-2.16Q42.34-2.16 43.49-3.65L43.49-3.65L43.49-3.65Q44.64-5.15 45.08-7.79L45.08-7.79L47.68-22.15L47.68-22.15Q46.65-23.03 45.45-23.03L45.45-23.03L45.45-23.03Q44.25-23.03 43.54-22.64L43.54-22.64L43.54-22.64Q42.83-22.25 42.26-21.36ZM81.29 0.98L81.29 0.98L81.29 0.98Q75.36 0.98 75.36-3.63L75.36-3.63L75.36-3.63Q75.41-4.90 75.80-7.06L75.80-7.06L76.69-11.56L76.69-11.56Q78.01-17.93 78.01-19.36L78.01-19.36L78.01-19.36Q78.01-22.20 76.34-22.20L76.34-22.20L76.34-22.20Q73.55-22.20 72.08-14.90L72.08-14.90L69.19 0L59.34 0.98L64.44-25.04L72.47-25.97L71.69-21.17L71.69-21.17Q73.99-25.97 81.05-25.97L81.05-25.97L81.05-25.97Q84.48-25.97 85.92-24.52L85.92-24.52L85.92-24.52Q87.37-23.08 87.37-19.85L87.37-19.85L87.37-19.85Q87.37-16.81 85.80-9.70L85.80-9.70L85.80-9.70Q85.06-6.52 85.06-5.32L85.06-5.32L85.06-5.32Q85.06-4.12 85.73-3.43L85.73-3.43L85.73-3.43Q86.39-2.74 87.37-2.65L87.37-2.65L87.37-2.65Q86.88-0.98 85.19 0L85.19 0L85.19 0Q83.50 0.98 81.29 0.98ZM98.39-22.59L93.20-22.59L93.20-22.59Q95.01-28.86 95.11-35.48L95.11-35.48L96.53-35.67L96.53-35.67Q97.27-35.77 97.80-35.77L97.80-35.77L97.80-35.77Q99.96-35.77 101.14-34.72L101.14-34.72L101.14-34.72Q102.31-33.66 102.31-31.80L102.31-31.80L102.31-31.80Q102.31-29.84 101.43-27.69L101.43-27.69L101.43-27.69Q99.86-23.86 98.39-22.59L98.39-22.59ZM116.38-17.20L116.38-17.20L116.38-17.20Q117.06-19.01 117.06-20.58L117.06-20.58L117.06-20.58Q117.06-23.47 114.71-23.47L114.71-23.47L114.71-23.47Q113.48-23.47 112.48-22.37L112.48-22.37L112.48-22.37Q111.48-21.27 111.48-19.89L111.48-19.89L111.48-19.89Q111.48-18.91 112.26-18.13L112.26-18.13L112.26-18.13Q113.39-17.05 116.28-15.29L116.28-15.29L116.28-15.29Q119.17-13.52 120.27-12.08L120.27-12.08L120.27-12.08Q121.37-10.63 121.37-8.65L121.37-8.65L121.37-8.65Q121.37-6.66 120.42-4.85L120.42-4.85L120.42-4.85Q119.46-3.04 117.75-1.76L117.75-1.76L117.75-1.76Q114.07 0.98 108.19 0.98L108.19 0.98L108.19 0.98Q105.01 0.98 102.56-0.69L102.56-0.69L102.56-0.69Q100.11-2.30 100.11-4.21L100.11-4.21L100.11-4.21Q100.11-6.13 101.50-7.25L101.50-7.25L101.50-7.25Q102.90-8.38 104.96-8.38L104.96-8.38L104.96-8.38Q107.02-8.38 108.29-7.60L108.29-7.60L108.29-7.60Q107.65-5.98 107.65-4.90L107.65-4.90L107.65-4.90Q107.65-1.67 110.40-1.67L110.40-1.67L110.40-1.67Q111.57-1.67 112.36-2.40L112.36-2.40L112.36-2.40Q113.14-3.14 113.14-4.41L113.14-4.41L113.14-4.41Q113.14-6.91 108.93-9.55L108.93-9.55L108.93-9.55Q105.50-11.81 104.71-12.69L104.71-12.69L104.71-12.69Q103.39-14.26 103.39-16.22L103.39-16.22L103.39-16.22Q103.39-18.18 104.32-20.04L104.32-20.04L104.32-20.04Q105.25-21.90 106.97-23.23L106.97-23.23L106.97-23.23Q110.54-25.97 116.77-25.97L116.77-25.97L116.77-25.97Q119.95-25.97 121.84-24.70L121.84-24.70L121.84-24.70Q123.73-23.42 123.73-21.27L123.73-21.27L123.73-21.27Q123.73-19.11 122.43-17.89L122.43-17.89L122.43-17.89Q121.13-16.66 118.78-16.66L118.78-16.66L118.78-16.66Q117.16-16.66 116.38-17.20ZM153.91-3.68L153.91-3.68L153.91-3.68Q153.91-7.11 155.28-13.96L155.28-13.96L148.03-13.96L145.33 0L135.09 0L141.32-32.34L151.66-32.34L148.81-17.89L156.06-17.89L158.76-32.34L169.10-32.34L169.10-32.34Q168.41-28.71 167.53-24.65L167.53-24.65L165.87-16.66L165.87-16.66Q164.00-7.35 164.00-3.28L164.00-3.28L164.00-3.28Q164.00-1.62 164.54-0.69L164.54-0.69L164.54-0.69Q162.09 0.98 159.23 0.98L159.23 0.98L159.23 0.98Q156.36 0.98 155.13-0.39L155.13-0.39L155.13-0.39Q153.91-1.76 153.91-3.68ZM172.41-1.47L172.41-1.47L172.41-1.47Q171.25-2.74 170.74-4.75L170.74-4.75L170.74-4.75Q170.23-6.76 170.23-10.04L170.23-10.04L170.23-10.04Q170.23-13.33 171.35-16.32L171.35-16.32L171.35-16.32Q172.48-19.31 174.54-21.46L174.54-21.46L174.54-21.46Q178.75-25.97 185.71-25.97L185.71-25.97L185.71-25.97Q188.21-25.97 190.02-25.14L190.02-25.14L198.40-25.97L194.78-6.86L194.78-6.86Q194.63-6.27 194.63-5.19L194.63-5.19L194.63-5.19Q194.63-4.12 195.29-3.43L195.29-3.43L195.29-3.43Q195.95-2.74 196.93-2.65L196.93-2.65L196.93-2.65Q196.44-0.98 194.65 0L194.65 0L194.65 0Q192.86 0.98 190.86 0.98L190.86 0.98L190.86 0.98Q188.85 0.98 187.50 0.22L187.50 0.22L187.50 0.22Q186.15-0.54 185.76-1.81L185.76-1.81L185.76-1.81Q184.98-0.59 183.31 0.20L183.31 0.20L183.31 0.20Q181.64 0.98 179.41 0.98L179.41 0.98L179.41 0.98Q177.18 0.98 175.37 0.39L175.37 0.39L175.37 0.39Q173.56-0.20 172.41-1.47ZM182.75-21.36L182.75-21.36L182.75-21.36Q182.18-20.48 181.69-18.99L181.69-18.99L181.69-18.99Q181.20-17.49 180.39-13.50L180.39-13.50L180.39-13.50Q179.59-9.51 179.59-6.66L179.59-6.66L179.59-6.66Q179.59-3.82 180.03-2.99L180.03-2.99L180.03-2.99Q180.47-2.16 181.25-2.16L181.25-2.16L181.25-2.16Q182.82-2.16 183.97-3.65L183.97-3.65L183.97-3.65Q185.12-5.15 185.56-7.79L185.56-7.79L188.16-22.15L188.16-22.15Q187.13-23.03 185.93-23.03L185.93-23.03L185.93-23.03Q184.73-23.03 184.02-22.64L184.02-22.64L184.02-22.64Q183.31-22.25 182.75-21.36ZM224.91-20.38L224.91-20.38L224.91-20.38Q224.91-18.33 223.19-17.05L223.19-17.05L223.19-17.05Q221.48-15.78 218.69-15.78L218.69-15.78L218.69-15.78Q217.51-15.78 216.82-16.12L216.82-16.12L216.82-16.12Q217.36-17.39 217.54-18.99L217.54-18.99L217.54-18.99Q217.71-20.58 217.71-21.02L217.71-21.02L217.71-21.02Q217.71-23.08 216.29-23.08L216.29-23.08L216.29-23.08Q215.31-23.08 214.20-21.85L214.20-21.85L214.20-21.85Q213.10-20.63 212.17-18.72L212.17-18.72L212.17-18.72Q210.11-14.31 210.11-9.85L210.11-9.85L210.11-9.85Q210.11-7.40 211.04-6.30L211.04-6.30L211.04-6.30Q211.97-5.19 214.03-5.19L214.03-5.19L214.03-5.19Q216.87-5.19 219.13-7.55L219.13-7.55L219.13-7.55Q219.76-8.28 220.11-9.11L220.11-9.11L220.11-9.11Q221.97-8.13 221.97-5.44L221.97-5.44L221.97-5.44Q221.97-2.70 218.93-0.88L218.93-0.88L218.93-0.88Q215.80 0.98 210.80 0.98L210.80 0.98L210.80 0.98Q200.85 0.98 200.85-9.55L200.85-9.55L200.85-9.55Q200.85-17.25 205.21-21.66L205.21-21.66L205.21-21.66Q209.43-25.97 217.17-25.97L217.17-25.97L217.17-25.97Q224.91-25.97 224.91-20.38ZM238.88-23.23L238.88-23.23L238.88-23.23Q241.52-25.97 247.11-25.97L247.11-25.97L247.11-25.97Q250.19-25.97 251.88-24.33L251.88-24.33L251.88-24.33Q253.58-22.69 253.58-19.67L253.58-19.67L253.58-19.67Q253.58-16.66 251.88-14.53L251.88-14.53L251.88-14.53Q250.19-12.40 247.06-11.52L247.06-11.52L247.06-11.52Q247.30-10.54 247.65-9.51L247.65-9.51L248.33-7.55L248.33-7.55Q249.26-5.05 250.00-4.17L250.00-4.17L250.00-4.17Q250.73-3.28 251.71-2.99L251.71-2.99L251.71-2.99Q251.17-0.98 249.21 0.10L249.21 0.10L249.21 0.10Q247.65 0.98 245.49 0.98L245.49 0.98L245.49 0.98Q239.17 0.98 238.34-8.77L238.34-8.77L238.34-8.77Q238.19-10.14 238.19-11.52L238.19-11.52L238.19-11.52Q240.64-12.20 242.35-14.50L242.35-14.50L242.35-14.50Q244.07-16.81 244.07-19.50L244.07-19.50L244.07-19.50Q244.07-22.20 242.16-22.20L242.16-22.20L242.16-22.20Q240.79-22.20 239.71-20.68L239.71-20.68L239.71-20.68Q238.63-19.16 238.14-16.56L238.14-16.56L234.91 0L225.01 0.98L231.87-34.30L241.72-35.28L240.59-29.45L240.59-29.45Q239.86-25.33 238.88-23.23ZM275.67-8.28L275.67-8.28L275.67-8.28Q276.90-7.45 276.90-5.61L276.90-5.61L276.90-5.61Q276.90-3.77 275.97-2.60L275.97-2.60L275.97-2.60Q275.04-1.42 273.52-0.64L273.52-0.64L273.52-0.64Q270.38 0.98 267.00 0.98L267.00 0.98L267.00 0.98Q263.62 0.98 261.64 0.24L261.64 0.24L261.64 0.24Q259.65-0.49 258.33-1.86L258.33-1.86L258.33-1.86Q255.73-4.46 255.73-9.21L255.73-9.21L255.73-9.21Q255.73-16.61 259.75-21.12L259.75-21.12L259.75-21.12Q264.06-25.97 271.56-25.97L271.56-25.97L271.56-25.97Q276.21-25.97 278.52-24.01L278.52-24.01L278.52-24.01Q280.23-22.54 280.23-20.14L280.23-20.14L280.23-20.14Q280.23-11.52 265.34-11.52L265.34-11.52L265.34-11.52Q265.14-10.24 265.14-9.16L265.14-9.16L265.14-9.16Q265.14-6.91 266.14-6.05L266.14-6.05L266.14-6.05Q267.15-5.19 269.01-5.19L269.01-5.19L269.01-5.19Q270.87-5.19 272.86-6.05L272.86-6.05L272.86-6.05Q274.84-6.91 275.67-8.28ZM265.68-13.62L265.68-13.62L265.68-13.62Q269.16-13.62 271.17-15.78L271.17-15.78L271.17-15.78Q273.18-17.84 273.18-21.12L273.18-21.12L273.18-21.12Q273.18-22.25 272.76-22.86L272.76-22.86L272.76-22.86Q272.34-23.47 271.51-23.47L271.51-23.47L271.51-23.47Q270.68-23.47 269.97-23.15L269.97-23.15L269.97-23.15Q269.25-22.83 268.52-21.76L268.52-21.76L268.52-21.76Q266.71-19.31 265.68-13.62ZM297.23-13.77L297.23-13.77L297.23-13.77Q299.00-16.91 299.00-20.09L299.00-20.09L299.00-20.09Q299.00-22.20 297.48-22.20L297.48-22.20L297.48-22.20Q296.30-22.20 295.08-20.19L295.08-20.19L295.08-20.19Q293.80-18.18 293.41-15.58L293.41-15.58L290.86 0L280.72 0.98L285.72-24.99L293.80-25.97L292.92-21.02L292.92-21.02Q295.32-25.97 300.71-25.97L300.71-25.97L300.71-25.97Q303.56-25.97 305.10-24.50L305.10-24.50L305.10-24.50Q306.64-23.03 306.64-20.02L306.64-20.02L306.64-20.02Q306.64-17.00 304.66-15.09L304.66-15.09L304.66-15.09Q302.67-13.18 299.29-13.18L299.29-13.18L299.29-13.18Q297.82-13.18 297.23-13.77ZM349.32-20.34L349.32-20.34L349.32-20.34Q349.32 0.54 326.68 0.54L326.68 0.54L326.68 0.54Q323.06 0.54 317.08-0.34L317.08-0.34L322.57-29.30L322.57-29.30Q322.96-31.26 323.20-32.39L323.20-32.39L323.20-32.39Q330.65-32.93 333.96-32.93L333.96-32.93L333.96-32.93Q337.27-32.93 340.31-32.24L340.31-32.24L340.31-32.24Q343.34-31.56 345.35-30.04L345.35-30.04L345.35-30.04Q349.32-27.05 349.32-20.34ZM339.23-22.15L339.23-22.15L339.23-22.15Q339.23-29.45 333.98-29.45L333.98-29.45L333.49-29.45L333.49-29.45Q333.25-29.45 333.00-29.40L333.00-29.40L327.96-3.09L327.96-3.09Q328.15-2.99 328.35-2.99L328.35-2.99L328.74-2.99L328.74-2.99Q330.55-2.99 332.44-4.12L332.44-4.12L332.44-4.12Q334.33-5.24 335.80-7.55L335.80-7.55L335.80-7.55Q339.23-12.89 339.23-22.15ZM363.58-2.70L363.58-2.70L363.58-2.70Q362.06 0.98 357.21 0.98L357.21 0.98L357.21 0.98Q354.71 0.98 353.14-0.73L353.14-0.73L353.14-0.73Q351.82-2.25 351.82-3.77L351.82-3.77L351.82-3.77Q351.82-7.74 353.63-15.48L353.63-15.48L355.45-24.99L365.39-25.97L362.40-10.49L362.40-10.49Q361.57-6.86 361.57-5.59L361.57-5.59L361.57-5.59Q361.57-2.79 363.58-2.70ZM356.33-31.80L356.33-31.80L356.33-31.80Q356.33-33.71 357.92-34.74L357.92-34.74L357.92-34.74Q359.51-35.77 361.82-35.77L361.82-35.77L361.82-35.77Q364.12-35.77 365.52-34.74L365.52-34.74L365.52-34.74Q366.91-33.71 366.91-31.80L366.91-31.80L366.91-31.80Q366.91-29.89 365.37-28.91L365.37-28.91L365.37-28.91Q363.83-27.93 361.52-27.93L361.52-27.93L361.52-27.93Q359.22-27.93 357.77-28.91L357.77-28.91L357.77-28.91Q356.33-29.89 356.33-31.80ZM382.40-17.20L382.40-17.20L382.40-17.20Q383.08-19.01 383.08-20.58L383.08-20.58L383.08-20.58Q383.08-23.47 380.73-23.47L380.73-23.47L380.73-23.47Q379.51-23.47 378.50-22.37L378.50-22.37L378.50-22.37Q377.50-21.27 377.50-19.89L377.50-19.89L377.50-19.89Q377.50-18.91 378.28-18.13L378.28-18.13L378.28-18.13Q379.41-17.05 382.30-15.29L382.30-15.29L382.30-15.29Q385.19-13.52 386.29-12.08L386.29-12.08L386.29-12.08Q387.39-10.63 387.39-8.65L387.39-8.65L387.39-8.65Q387.39-6.66 386.44-4.85L386.44-4.85L386.44-4.85Q385.48-3.04 383.77-1.76L383.77-1.76L383.77-1.76Q380.09 0.98 374.21 0.98L374.21 0.98L374.21 0.98Q371.03 0.98 368.58-0.69L368.58-0.69L368.58-0.69Q366.13-2.30 366.13-4.21L366.13-4.21L366.13-4.21Q366.13-6.13 367.52-7.25L367.52-7.25L367.52-7.25Q368.92-8.38 370.98-8.38L370.98-8.38L370.98-8.38Q373.04-8.38 374.31-7.60L374.31-7.60L374.31-7.60Q373.67-5.98 373.67-4.90L373.67-4.90L373.67-4.90Q373.67-1.67 376.42-1.67L376.42-1.67L376.42-1.67Q377.59-1.67 378.38-2.40L378.38-2.40L378.38-2.40Q379.16-3.14 379.16-4.41L379.16-4.41L379.16-4.41Q379.16-6.91 374.95-9.55L374.95-9.55L374.95-9.55Q371.52-11.81 370.73-12.69L370.73-12.69L370.73-12.69Q369.41-14.26 369.41-16.22L369.41-16.22L369.41-16.22Q369.41-18.18 370.34-20.04L370.34-20.04L370.34-20.04Q371.27-21.90 372.99-23.23L372.99-23.23L372.99-23.23Q376.57-25.97 382.79-25.97L382.79-25.97L382.79-25.97Q385.97-25.97 387.86-24.70L387.86-24.70L387.86-24.70Q389.75-23.42 389.75-21.27L389.75-21.27L389.75-21.27Q389.75-19.11 388.45-17.89L388.45-17.89L388.45-17.89Q387.15-16.66 384.80-16.66L384.80-16.66L384.80-16.66Q383.18-16.66 382.40-17.20ZM415.62-20.38L415.62-20.38L415.62-20.38Q415.62-18.33 413.90-17.05L413.90-17.05L413.90-17.05Q412.19-15.78 409.40-15.78L409.40-15.78L409.40-15.78Q408.22-15.78 407.53-16.12L407.53-16.12L407.53-16.12Q408.07-17.39 408.24-18.99L408.24-18.99L408.24-18.99Q408.42-20.58 408.42-21.02L408.42-21.02L408.42-21.02Q408.42-23.08 406.99-23.08L406.99-23.08L406.99-23.08Q406.01-23.08 404.91-21.85L404.91-21.85L404.91-21.85Q403.81-20.63 402.88-18.72L402.88-18.72L402.88-18.72Q400.82-14.31 400.82-9.85L400.82-9.85L400.82-9.85Q400.82-7.40 401.75-6.30L401.75-6.30L401.75-6.30Q402.68-5.19 404.74-5.19L404.74-5.19L404.74-5.19Q407.58-5.19 409.84-7.55L409.84-7.55L409.84-7.55Q410.47-8.28 410.82-9.11L410.82-9.11L410.82-9.11Q412.68-8.13 412.68-5.44L412.68-5.44L412.68-5.44Q412.68-2.70 409.64-0.88L409.64-0.88L409.64-0.88Q406.50 0.98 401.51 0.98L401.51 0.98L401.51 0.98Q391.56 0.98 391.56-9.55L391.56-9.55L391.56-9.55Q391.56-17.25 395.92-21.66L395.92-21.66L395.92-21.66Q400.13-25.97 407.88-25.97L407.88-25.97L407.88-25.97Q415.62-25.97 415.62-20.38ZM427.62 0.98L427.62 0.98L427.62 0.98Q416.84 0.98 416.84-9.16L416.84-9.16L416.84-9.16Q416.84-16.37 420.81-21.02L420.81-21.02L420.81-21.02Q425.03-25.97 432.33-25.97L432.33-25.97L432.33-25.97Q437.62-25.97 440.31-23.52L440.31-23.52L440.31-23.52Q443.01-21.07 443.01-15.93L443.01-15.93L443.01-15.93Q443.01-8.09 438.80-3.53L438.80-3.53L438.80-3.53Q434.68 0.98 427.62 0.98ZM428.90-20.34L428.90-20.34L428.90-20.34Q428.31-19.01 427.84-17.03L427.84-17.03L427.84-17.03Q427.38-15.04 426.79-11.91L426.79-11.91L426.79-11.91Q426.20-8.77 426.20-4.90L426.20-4.90L426.20-4.90Q426.20-3.63 426.62-2.79L426.62-2.79L426.62-2.79Q427.04-1.96 428.16-1.96L428.16-1.96L428.16-1.96Q429.29-1.96 430.00-2.50L430.00-2.50L430.00-2.50Q430.71-3.04 431.25-4.31L431.25-4.31L431.25-4.31Q432.23-6.57 433.01-10.76L433.01-10.76L433.01-10.76Q433.80-14.95 433.87-16.76L433.87-16.76L433.87-16.76Q433.94-18.57 433.94-19.92L433.94-19.92L433.94-19.92Q433.94-21.27 433.55-22.15L433.55-22.15L433.55-22.15Q433.16-23.03 432.06-23.03L432.06-23.03L432.06-23.03Q430.96-23.03 430.22-22.34L430.22-22.34L430.22-22.34Q429.49-21.66 428.90-20.34ZM461.24-13.77L461.24-13.77L461.24-13.77Q463.00-16.91 463.00-20.09L463.00-20.09L463.00-20.09Q463.00-22.20 461.48-22.20L461.48-22.20L461.48-22.20Q460.31-22.20 459.08-20.19L459.08-20.19L459.08-20.19Q457.81-18.18 457.42-15.58L457.42-15.58L454.87 0L444.72 0.98L449.72-24.99L457.81-25.97L456.93-21.02L456.93-21.02Q459.33-25.97 464.72-25.97L464.72-25.97L464.72-25.97Q467.56-25.97 469.10-24.50L469.10-24.50L469.10-24.50Q470.65-23.03 470.65-20.02L470.65-20.02L470.65-20.02Q470.65-17.00 468.66-15.09L468.66-15.09L468.66-15.09Q466.68-13.18 463.30-13.18L463.30-13.18L463.30-13.18Q461.83-13.18 461.24-13.77ZM486.86-25.97L486.86-25.97L486.86-25.97Q488.63-25.97 490.00-25.58L490.00-25.58L490.00-25.58Q490.05-25.77 490.15-26.31L490.15-26.31L490.39-27.83L490.39-27.83Q490.59-28.81 490.88-30.43L490.88-30.43L491.67-34.30L501.42-35.28L495.98-6.86L495.98-6.86Q495.93-6.57 495.93-6.08L495.93-6.08L495.93-5.29L495.93-5.29Q495.93-4.21 496.47-3.41L496.47-3.41L496.47-3.41Q497.01-2.60 497.89-2.60L497.89-2.60L497.89-2.60Q496.91-0.29 493.92 0.69L493.92 0.69L493.92 0.69Q492.89 0.98 491.45 0.98L491.45 0.98L491.45 0.98Q490.00 0.98 488.68 0.22L488.68 0.22L488.68 0.22Q487.35-0.54 486.96-1.81L486.96-1.81L486.96-1.81Q486.18-0.54 484.61 0.22L484.61 0.22L484.61 0.22Q483.04 0.98 480.76 0.98L480.76 0.98L480.76 0.98Q478.49 0.98 476.60 0.39L476.60 0.39L476.60 0.39Q474.71-0.20 473.54-1.47L473.54-1.47L473.54-1.47Q471.38-3.97 471.38-9.65L471.38-9.65L471.38-9.65Q471.38-17.00 475.69-21.46L475.69-21.46L475.69-21.46Q480.00-25.97 486.86-25.97ZM486.52-23.03L486.52-23.03L486.52-23.03Q484.71-23.03 483.73-21.07L483.73-21.07L483.73-21.07Q482.75-19.11 481.74-14.26L481.74-14.26L481.74-14.26Q480.74-9.41 480.74-5.05L480.74-5.05L480.74-5.05Q480.74-2.06 482.50-2.06L482.50-2.06L482.50-2.06Q484.07-2.06 485.17-3.63L485.17-3.63L485.17-3.63Q486.28-5.19 486.72-7.79L486.72-7.79L489.36-22.15L489.36-22.15Q488.33-23.03 486.52-23.03Z" fill="none" stroke="#e9ffd4" stroke-width="1"></path></g></g><style>text {
  font-size: 64px;
  font-family: Arial Black;
  dominant-baseline: central;
  text-anchor: middle;
}</style></svg>